<svg width="45" height="12" viewBox="0 0 45 12" fill="none" xmlns="http://www.w3.org/2000/svg">
<path d="M0.64 11.6162C0.554667 11.6162 0.48 11.5842 0.416 11.5202C0.352 11.4562 0.32 11.3815 0.32 11.2962C0.32 11.2109 0.325333 11.1522 0.336 11.1202L4.304 0.76821C4.38933 0.533544 4.56 0.41621 4.816 0.41621H5.904C6.16 0.41621 6.33067 0.533544 6.416 0.76821L10.368 11.1202L10.4 11.2962C10.4 11.3815 10.368 11.4562 10.304 11.5202C10.24 11.5842 10.1653 11.6162 10.08 11.6162H9.264C9.14667 11.6162 9.056 11.5895 8.992 11.5362C8.928 11.4722 8.88533 11.4082 8.864 11.3442L7.984 9.07221H2.736L1.856 11.3442C1.83467 11.4082 1.78667 11.4722 1.712 11.5362C1.648 11.5895 1.56267 11.6162 1.456 11.6162H0.64ZM7.52 7.69621L5.36 2.01621L3.2 7.69621H7.52ZM16.0148 11.7762C14.8628 11.7762 13.9881 11.3762 13.3908 10.5762V11.2482C13.3908 11.3549 13.3534 11.4455 13.2788 11.5202C13.2148 11.5842 13.1294 11.6162 13.0228 11.6162H12.2868C12.1801 11.6162 12.0894 11.5842 12.0148 11.5202C11.9508 11.4455 11.9188 11.3549 11.9188 11.2482V0.62421C11.9188 0.517544 11.9508 0.432211 12.0148 0.368211C12.0894 0.293544 12.1801 0.25621 12.2868 0.25621H13.0707C13.1774 0.25621 13.2628 0.293544 13.3268 0.368211C13.3908 0.432211 13.4228 0.517544 13.4228 0.62421V4.30421C14.0521 3.52554 14.9161 3.13621 16.0148 3.13621C17.1241 3.13621 17.9614 3.50421 18.5268 4.24021C19.0921 4.96554 19.3961 5.87754 19.4388 6.97621C19.4494 7.09354 19.4548 7.25354 19.4548 7.45621C19.4548 7.65888 19.4494 7.81888 19.4388 7.93621C19.3961 9.04554 19.0921 9.96288 18.5268 10.6882C17.9614 11.4135 17.1241 11.7762 16.0148 11.7762ZM15.6788 10.4802C16.4361 10.4802 16.9854 10.2455 17.3268 9.77621C17.6788 9.30688 17.8708 8.68821 17.9028 7.92021C17.9134 7.81354 17.9188 7.65888 17.9188 7.45621C17.9188 5.44021 17.1721 4.43221 15.6788 4.43221C14.9641 4.43221 14.4148 4.66688 14.0308 5.13621C13.6468 5.60554 13.4441 6.15488 13.4228 6.78421L13.4068 7.40821L13.4228 8.01621C13.4548 8.68821 13.6521 9.26954 14.0148 9.76021C14.3881 10.2402 14.9428 10.4802 15.6788 10.4802ZM24.8264 11.7762C23.653 11.7762 22.741 11.4455 22.0904 10.7842C21.4504 10.1229 21.109 9.24288 21.0664 8.14421L21.0504 7.45621L21.0664 6.76821C21.109 5.68021 21.4557 4.80554 22.1064 4.14421C22.757 3.47221 23.6637 3.13621 24.8264 3.13621C25.989 3.13621 26.8957 3.47221 27.5464 4.14421C28.197 4.80554 28.5437 5.68021 28.5864 6.76821C28.597 6.88554 28.6024 7.11488 28.6024 7.45621C28.6024 7.79754 28.597 8.02688 28.5864 8.14421C28.5437 9.24288 28.197 10.1229 27.5464 10.7842C26.9064 11.4455 25.9997 11.7762 24.8264 11.7762ZM24.8264 10.5442C25.4984 10.5442 26.0264 10.3309 26.4104 9.90421C26.805 9.47754 27.0184 8.86421 27.0504 8.06421C27.061 7.95754 27.0664 7.75488 27.0664 7.45621C27.0664 7.15754 27.061 6.95488 27.0504 6.84821C27.0184 6.04821 26.805 5.43488 26.4104 5.00821C26.0264 4.58154 25.4984 4.36821 24.8264 4.36821C24.1544 4.36821 23.621 4.58154 23.2264 5.00821C22.8317 5.43488 22.6237 6.04821 22.6024 6.84821L22.5864 7.45621L22.6024 8.06421C22.6237 8.86421 22.8317 9.47754 23.2264 9.90421C23.621 10.3309 24.1544 10.5442 24.8264 10.5442ZM33.7099 11.7762C32.6965 11.7762 31.9125 11.4509 31.3579 10.8002C30.8032 10.1389 30.5259 9.26421 30.5259 8.17621V3.66421C30.5259 3.55754 30.5579 3.47221 30.6219 3.40821C30.6965 3.33354 30.7872 3.29621 30.8939 3.29621H31.6939C31.8005 3.29621 31.8859 3.33354 31.9499 3.40821C32.0245 3.47221 32.0619 3.55754 32.0619 3.66421V8.09621C32.0619 9.68554 32.7552 10.4802 34.1419 10.4802C34.8139 10.4802 35.3472 10.2722 35.7419 9.85621C36.1365 9.42954 36.3339 8.84288 36.3339 8.09621V3.66421C36.3339 3.55754 36.3659 3.47221 36.4299 3.40821C36.5045 3.33354 36.5952 3.29621 36.7019 3.29621H37.5019C37.6085 3.29621 37.6939 3.33354 37.7579 3.40821C37.8219 3.47221 37.8539 3.55754 37.8539 3.66421V11.2482C37.8539 11.3549 37.8219 11.4455 37.7579 11.5202C37.6939 11.5842 37.6085 11.6162 37.5019 11.6162H36.7499C36.6432 11.6162 36.5525 11.5842 36.4779 11.5202C36.4139 11.4455 36.3819 11.3549 36.3819 11.2482V10.5442C36.0832 10.9495 35.7205 11.2589 35.2939 11.4722C34.8672 11.6749 34.3392 11.7762 33.7099 11.7762ZM43.4789 11.6162C41.7935 11.6162 40.9509 10.6775 40.9509 8.80021V4.57621H39.7029C39.5962 4.57621 39.5055 4.54421 39.4309 4.48021C39.3669 4.40554 39.3349 4.31488 39.3349 4.20821V3.66421C39.3349 3.55754 39.3669 3.47221 39.4309 3.40821C39.5055 3.33354 39.5962 3.29621 39.7029 3.29621H40.9509V0.62421C40.9509 0.517544 40.9829 0.432211 41.0469 0.368211C41.1215 0.293544 41.2122 0.25621 41.3189 0.25621H42.0709C42.1775 0.25621 42.2629 0.293544 42.3269 0.368211C42.4015 0.432211 42.4389 0.517544 42.4389 0.62421V3.29621H44.4229C44.5295 3.29621 44.6149 3.33354 44.6789 3.40821C44.7535 3.47221 44.7909 3.55754 44.7909 3.66421V4.20821C44.7909 4.31488 44.7535 4.40554 44.6789 4.48021C44.6149 4.54421 44.5295 4.57621 44.4229 4.57621H42.4389V8.68821C42.4389 9.22154 42.5295 9.62688 42.7109 9.90421C42.8922 10.1709 43.1909 10.3042 43.6069 10.3042H44.5829C44.6895 10.3042 44.7749 10.3415 44.8389 10.4162C44.9135 10.4802 44.9509 10.5655 44.9509 10.6722V11.2482C44.9509 11.3549 44.9135 11.4455 44.8389 11.5202C44.7749 11.5842 44.6895 11.6162 44.5829 11.6162H43.4789Z" fill="#4F5665"/>
</svg>
